# xmcd CD database file
#
# Track frame offsets:
#	150
#	14412
#	26274
#	57278
#	75404
#	109983
#	140514
#	155397
#	168356
#	191770
#	202461
#	211518
#	226027
#	247499
#	273640
#	292001
#	309420
#	321249
#	336920
#
# Disc length: 4690 seconds
#
# Revision: 0
# Processed by: cddbd v1.5.1PL0 Copyright (c) Steve Scherf et al.
# Submitted via: NeoAudio 9.9.9
#
DISCID=19125013
DTITLE=Gentle Giant - carcd
DYEAR=2004
DGENRE=Jazz
TTITLE0=Funny Ways
TTITLE1=Nothing At All
TTITLE2=Pantagruel's Nativity
TTITLE3=Raconteur Troubadour
TTITLE4=In A Glass House
TTITLE5=Proclamation
TTITLE6=Valedictory
TTITLE7=The Power And The Glory
TTITLE8=Give It Back
TTITLE9=I Betcha Thought We Couldn't Do It
TTITLE10=Friends
TTITLE11=Convenience
TTITLE12=Time To Kill
TTITLE13=Interview
TTITLE14=For Nobody
TTITLE15=Winning
TTITLE16=Spooky Boogie
TTITLE17=Little Brown Bag
TTITLE18=Underground
EXTD=YEAR: 2004
EXTT0=
EXTT1=
EXTT2=
EXTT3=
EXTT4=
EXTT5=
EXTT6=
EXTT7=
EXTT8=
EXTT9=
EXTT10=
EXTT11=
EXTT12=
EXTT13=
EXTT14=
EXTT15=
EXTT16=
EXTT17=
EXTT18=
PLAYORDER=
